# xmcd
# Copyright (C) 1995-1998 Ti Kan
#
# Track frame offsets:
#       150
#       20642
#       40274
#       54344
#       70471
#       95183
#       126331
#       139360
#       158333
#
# Disc length: 2557 seconds
#
# Revision: 1
# Processed by: cddbd v1.5.2PL0 Copyright (c) Steve Scherf et al.
# Submitted via: CD-Transfer v1.0
#
DISCID=8009fb09
DTITLE=Rolling Stones, The - M. Jagger, K. Richard
DYEAR=69
DGENRE=
TTITLE0=Let It Bleed
TTITLE1=Love In Vain
TTITLE2=Midnight Rambler
TTITLE3=Gimme Shelter
TTITLE4=You Got The Silver
TTITLE5=You Can't Always Get What You Wantx
TTITLE6=Live With Me
TTITLE7=Monkey Man
TTITLE8=Country Honk
EXTD=
EXTT0=
EXTT1=
EXTT2=
EXTT3=
EXTT4=
EXTT5=
EXTT6=
EXTT7=
EXTT8=
PLAYORDER=
